%TF.GenerationSoftware,KiCad,Pcbnew,7.0.9*%
%TF.CreationDate,2024-01-02T09:41:28+05:30*%
%TF.ProjectId,STM32F103C8T6,53544d33-3246-4313-9033-433854362e6b,rev?*%
%TF.SameCoordinates,Original*%
%TF.FileFunction,Copper,L1,Top*%
%TF.FilePolarity,Positive*%
%FSLAX46Y46*%
G04 Gerber Fmt 4.6, Leading zero omitted, Abs format (unit mm)*
G04 Created by KiCad (PCBNEW 7.0.9) date 2024-01-02 09:41:28*
%MOMM*%
%LPD*%
G01*
G04 APERTURE LIST*
G04 Aperture macros list*
%AMRoundRect*
0 Rectangle with rounded corners*
0 $1 Rounding radius*
0 $2 $3 $4 $5 $6 $7 $8 $9 X,Y pos of 4 corners*
0 Add a 4 corners polygon primitive as box body*
4,1,4,$2,$3,$4,$5,$6,$7,$8,$9,$2,$3,0*
0 Add four circle primitives for the rounded corners*
1,1,$1+$1,$2,$3*
1,1,$1+$1,$4,$5*
1,1,$1+$1,$6,$7*
1,1,$1+$1,$8,$9*
0 Add four rect primitives between the rounded corners*
20,1,$1+$1,$2,$3,$4,$5,0*
20,1,$1+$1,$4,$5,$6,$7,0*
20,1,$1+$1,$6,$7,$8,$9,0*
20,1,$1+$1,$8,$9,$2,$3,0*%
G04 Aperture macros list end*
%TA.AperFunction,SMDPad,CuDef*%
%ADD10RoundRect,0.135000X0.135000X0.185000X-0.135000X0.185000X-0.135000X-0.185000X0.135000X-0.185000X0*%
%TD*%
%TA.AperFunction,SMDPad,CuDef*%
%ADD11RoundRect,0.250000X0.475000X-0.250000X0.475000X0.250000X-0.475000X0.250000X-0.475000X-0.250000X0*%
%TD*%
%TA.AperFunction,SMDPad,CuDef*%
%ADD12RoundRect,0.140000X0.140000X0.170000X-0.140000X0.170000X-0.140000X-0.170000X0.140000X-0.170000X0*%
%TD*%
%TA.AperFunction,SMDPad,CuDef*%
%ADD13RoundRect,0.140000X-0.140000X-0.170000X0.140000X-0.170000X0.140000X0.170000X-0.140000X0.170000X0*%
%TD*%
%TA.AperFunction,SMDPad,CuDef*%
%ADD14RoundRect,0.135000X-0.135000X-0.185000X0.135000X-0.185000X0.135000X0.185000X-0.135000X0.185000X0*%
%TD*%
%TA.AperFunction,SMDPad,CuDef*%
%ADD15RoundRect,0.140000X0.170000X-0.140000X0.170000X0.140000X-0.170000X0.140000X-0.170000X-0.140000X0*%
%TD*%
%TA.AperFunction,SMDPad,CuDef*%
%ADD16RoundRect,0.218750X-0.256250X0.218750X-0.256250X-0.218750X0.256250X-0.218750X0.256250X0.218750X0*%
%TD*%
%TA.AperFunction,SMDPad,CuDef*%
%ADD17RoundRect,0.250000X-0.250000X-0.475000X0.250000X-0.475000X0.250000X0.475000X-0.250000X0.475000X0*%
%TD*%
%TA.AperFunction,SMDPad,CuDef*%
%ADD18RoundRect,0.135000X-0.185000X0.135000X-0.185000X-0.135000X0.185000X-0.135000X0.185000X0.135000X0*%
%TD*%
%TA.AperFunction,ComponentPad*%
%ADD19R,1.700000X1.700000*%
%TD*%
%TA.AperFunction,ComponentPad*%
%ADD20O,1.700000X1.700000*%
%TD*%
%TA.AperFunction,SMDPad,CuDef*%
%ADD21R,1.500000X2.000000*%
%TD*%
%TA.AperFunction,SMDPad,CuDef*%
%ADD22R,3.800000X2.000000*%
%TD*%
%TA.AperFunction,SMDPad,CuDef*%
%ADD23R,1.300000X0.450000*%
%TD*%
%TA.AperFunction,ComponentPad*%
%ADD24O,1.800000X1.150000*%
%TD*%
%TA.AperFunction,ComponentPad*%
%ADD25O,2.000000X1.450000*%
%TD*%
%TA.AperFunction,SMDPad,CuDef*%
%ADD26R,0.800000X1.000000*%
%TD*%
%TA.AperFunction,SMDPad,CuDef*%
%ADD27R,1.500000X0.700000*%
%TD*%
%TA.AperFunction,SMDPad,CuDef*%
%ADD28R,1.200000X1.400000*%
%TD*%
%TA.AperFunction,SMDPad,CuDef*%
%ADD29RoundRect,0.140000X-0.170000X0.140000X-0.170000X-0.140000X0.170000X-0.140000X0.170000X0.140000X0*%
%TD*%
%TA.AperFunction,SMDPad,CuDef*%
%ADD30RoundRect,0.075000X-0.662500X-0.075000X0.662500X-0.075000X0.662500X0.075000X-0.662500X0.075000X0*%
%TD*%
%TA.AperFunction,SMDPad,CuDef*%
%ADD31RoundRect,0.075000X-0.075000X-0.662500X0.075000X-0.662500X0.075000X0.662500X-0.075000X0.662500X0*%
%TD*%
%TA.AperFunction,SMDPad,CuDef*%
%ADD32RoundRect,0.135000X0.185000X-0.135000X0.185000X0.135000X-0.185000X0.135000X-0.185000X-0.135000X0*%
%TD*%
%TA.AperFunction,SMDPad,CuDef*%
%ADD33RoundRect,0.225000X-0.225000X-0.250000X0.225000X-0.250000X0.225000X0.250000X-0.225000X0.250000X0*%
%TD*%
%TA.AperFunction,ViaPad*%
%ADD34C,0.800000*%
%TD*%
%TA.AperFunction,ViaPad*%
%ADD35C,0.700000*%
%TD*%
%TA.AperFunction,Conductor*%
%ADD36C,0.300000*%
%TD*%
%TA.AperFunction,Conductor*%
%ADD37C,0.500000*%
%TD*%
%TA.AperFunction,Conductor*%
%ADD38C,0.200000*%
%TD*%
G04 APERTURE END LIST*
D10*
%TO.P,R4,1*%
%TO.N,+3.3V*%
X68338000Y-103124000D03*
%TO.P,R4,2*%
%TO.N,/I2C2_SCL*%
X67318000Y-103124000D03*
%TD*%
D11*
%TO.P,C13,1*%
%TO.N,+3.3V*%
X86868000Y-102804000D03*
%TO.P,C13,2*%
%TO.N,GND*%
X86868000Y-100904000D03*
%TD*%
D12*
%TO.P,C8,1*%
%TO.N,+3.3V*%
X64968000Y-100330000D03*
%TO.P,C8,2*%
%TO.N,GND*%
X64008000Y-100330000D03*
%TD*%
D13*
%TO.P,C9,1*%
%TO.N,Net-(U1-NRST)*%
X69116000Y-100076000D03*
%TO.P,C9,2*%
%TO.N,GND*%
X70076000Y-100076000D03*
%TD*%
D14*
%TO.P,R3,1*%
%TO.N,/PWR_LED_K*%
X90930000Y-99034500D03*
%TO.P,R3,2*%
%TO.N,GND*%
X91950000Y-99034500D03*
%TD*%
D15*
%TO.P,C11,1*%
%TO.N,/HSE_OUT*%
X63920000Y-95222000D03*
%TO.P,C11,2*%
%TO.N,GND*%
X63920000Y-94262000D03*
%TD*%
D12*
%TO.P,C7,1*%
%TO.N,+3.3VA*%
X64996000Y-98806000D03*
%TO.P,C7,2*%
%TO.N,GND*%
X64036000Y-98806000D03*
%TD*%
D16*
%TO.P,FB1,1*%
%TO.N,+3.3VA*%
X66548000Y-98755000D03*
%TO.P,FB1,2*%
%TO.N,+3.3V*%
X66548000Y-100330000D03*
%TD*%
D17*
%TO.P,C12,1*%
%TO.N,VBUS*%
X80838000Y-96774000D03*
%TO.P,C12,2*%
%TO.N,GND*%
X82738000Y-96774000D03*
%TD*%
D18*
%TO.P,R2,1*%
%TO.N,+3.3V*%
X80010000Y-91946000D03*
%TO.P,R2,2*%
%TO.N,/USB_D+*%
X80010000Y-92966000D03*
%TD*%
D12*
%TO.P,C3,1*%
%TO.N,+3.3V*%
X75664000Y-100076000D03*
%TO.P,C3,2*%
%TO.N,GND*%
X74704000Y-100076000D03*
%TD*%
D14*
%TO.P,R5,1*%
%TO.N,+3.3V*%
X69604000Y-103124000D03*
%TO.P,R5,2*%
%TO.N,/I2C2_SDA*%
X70624000Y-103124000D03*
%TD*%
D19*
%TO.P,J3,1,Pin_1*%
%TO.N,+3.3V*%
X73406000Y-81534000D03*
D20*
%TO.P,J3,2,Pin_2*%
%TO.N,/USART1_TX*%
X70866000Y-81534000D03*
%TO.P,J3,3,Pin_3*%
%TO.N,/USART1_RX*%
X68326000Y-81534000D03*
%TO.P,J3,4,Pin_4*%
%TO.N,GND*%
X65786000Y-81534000D03*
%TD*%
D16*
%TO.P,D1,1,K*%
%TO.N,/PWR_LED_K*%
X91186000Y-100558500D03*
%TO.P,D1,2,A*%
%TO.N,+3.3V*%
X91186000Y-102133500D03*
%TD*%
D21*
%TO.P,U2,1,GND*%
%TO.N,GND*%
X84342000Y-99212000D03*
%TO.P,U2,2,VO*%
%TO.N,+3.3V*%
X82042000Y-99212000D03*
D22*
X82042000Y-105512000D03*
D21*
%TO.P,U2,3,VI*%
%TO.N,VBUS*%
X79742000Y-99212000D03*
%TD*%
D23*
%TO.P,J1,1,VBUS*%
%TO.N,VBUS*%
X89032000Y-94264000D03*
%TO.P,J1,2,D-*%
%TO.N,/USB_D-*%
X89032000Y-93614000D03*
%TO.P,J1,3,D+*%
%TO.N,/USB_D+*%
X89032000Y-92964000D03*
%TO.P,J1,4,ID*%
%TO.N,unconnected-(J1-ID-Pad4)*%
X89032000Y-92314000D03*
%TO.P,J1,5,GND*%
%TO.N,GND*%
X89032000Y-91664000D03*
D24*
%TO.P,J1,6,Shield*%
%TO.N,unconnected-(J1-Shield-Pad6)*%
X92882000Y-96839000D03*
D25*
X89082000Y-96689000D03*
X89082000Y-89239000D03*
D24*
X92882000Y-89089000D03*
%TD*%
D26*
%TO.P,SW1,*%
%TO.N,*%
X57135000Y-87028000D03*
X54925000Y-87028000D03*
X57135000Y-94328000D03*
X54925000Y-94328000D03*
D27*
%TO.P,SW1,1,A*%
%TO.N,+3.3V*%
X57785000Y-88428000D03*
%TO.P,SW1,2,B*%
%TO.N,/SW_BOOT0*%
X57785000Y-91428000D03*
%TO.P,SW1,3,C*%
%TO.N,GND*%
X57785000Y-92928000D03*
%TD*%
D19*
%TO.P,J4,1,Pin_1*%
%TO.N,+3.3V*%
X65786000Y-105918000D03*
D20*
%TO.P,J4,2,Pin_2*%
%TO.N,/I2C2_SCL*%
X68326000Y-105918000D03*
%TO.P,J4,3,Pin_3*%
%TO.N,/I2C2_SDA*%
X70866000Y-105918000D03*
%TO.P,J4,4,Pin_4*%
%TO.N,GND*%
X73406000Y-105918000D03*
%TD*%
D28*
%TO.P,Y1,1,1*%
%TO.N,/HSE_IN*%
X60745000Y-91737000D03*
%TO.P,Y1,2,2*%
%TO.N,GND*%
X60745000Y-93937000D03*
%TO.P,Y1,3,3*%
%TO.N,/HSE_OUT*%
X62445000Y-93937000D03*
%TO.P,Y1,4,4*%
%TO.N,GND*%
X62445000Y-91737000D03*
%TD*%
D19*
%TO.P,J2,1,Pin_1*%
%TO.N,+3.3V*%
X85598000Y-81534000D03*
D20*
%TO.P,J2,2,Pin_2*%
%TO.N,/SW_DIO*%
X83058000Y-81534000D03*
%TO.P,J2,3,Pin_3*%
%TO.N,/SWCLK*%
X80518000Y-81534000D03*
%TO.P,J2,4,Pin_4*%
%TO.N,GND*%
X77978000Y-81534000D03*
%TD*%
D13*
%TO.P,C1,1*%
%TO.N,+3.3V*%
X68636000Y-88138000D03*
%TO.P,C1,2*%
%TO.N,GND*%
X69596000Y-88138000D03*
%TD*%
D15*
%TO.P,C6,1*%
%TO.N,+3.3VA*%
X65786000Y-95984000D03*
%TO.P,C6,2*%
%TO.N,GND*%
X65786000Y-95024000D03*
%TD*%
D29*
%TO.P,C2,1*%
%TO.N,+3.3V*%
X77978000Y-91440000D03*
%TO.P,C2,2*%
%TO.N,GND*%
X77978000Y-92400000D03*
%TD*%
D30*
%TO.P,U1,1,VBAT*%
%TO.N,+3.3V*%
X67465500Y-91484000D03*
%TO.P,U1,2,PC13*%
%TO.N,unconnected-(U1-PC13-Pad2)*%
X67465500Y-91984000D03*
%TO.P,U1,3,PC14*%
%TO.N,unconnected-(U1-PC14-Pad3)*%
X67465500Y-92484000D03*
%TO.P,U1,4,PC15*%
%TO.N,unconnected-(U1-PC15-Pad4)*%
X67465500Y-92984000D03*
%TO.P,U1,5,PD0*%
%TO.N,/HSE_IN*%
X67465500Y-93484000D03*
%TO.P,U1,6,PD1*%
%TO.N,/HSE_OUT*%
X67465500Y-93984000D03*
%TO.P,U1,7,NRST*%
%TO.N,Net-(U1-NRST)*%
X67465500Y-94484000D03*
%TO.P,U1,8,VSSA*%
%TO.N,GND*%
X67465500Y-94984000D03*
%TO.P,U1,9,VDDA*%
%TO.N,+3.3VA*%
X67465500Y-95484000D03*
%TO.P,U1,10,PA0*%
%TO.N,unconnected-(U1-PA0-Pad10)*%
X67465500Y-95984000D03*
%TO.P,U1,11,PA1*%
%TO.N,unconnected-(U1-PA1-Pad11)*%
X67465500Y-96484000D03*
%TO.P,U1,12,PA2*%
%TO.N,unconnected-(U1-PA2-Pad12)*%
X67465500Y-96984000D03*
D31*
%TO.P,U1,13,PA3*%
%TO.N,unconnected-(U1-PA3-Pad13)*%
X68878000Y-98396500D03*
%TO.P,U1,14,PA4*%
%TO.N,unconnected-(U1-PA4-Pad14)*%
X69378000Y-98396500D03*
%TO.P,U1,15,PA5*%
%TO.N,unconnected-(U1-PA5-Pad15)*%
X69878000Y-98396500D03*
%TO.P,U1,16,PA6*%
%TO.N,unconnected-(U1-PA6-Pad16)*%
X70378000Y-98396500D03*
%TO.P,U1,17,PA7*%
%TO.N,unconnected-(U1-PA7-Pad17)*%
X70878000Y-98396500D03*
%TO.P,U1,18,PB0*%
%TO.N,unconnected-(U1-PB0-Pad18)*%
X71378000Y-98396500D03*
%TO.P,U1,19,PB1*%
%TO.N,unconnected-(U1-PB1-Pad19)*%
X71878000Y-98396500D03*
%TO.P,U1,20,PB2*%
%TO.N,unconnected-(U1-PB2-Pad20)*%
X72378000Y-98396500D03*
%TO.P,U1,21,PB10*%
%TO.N,/I2C2_SCL*%
X72878000Y-98396500D03*
%TO.P,U1,22,PB11*%
%TO.N,/I2C2_SDA*%
X73378000Y-98396500D03*
%TO.P,U1,23,VSS*%
%TO.N,GND*%
X73878000Y-98396500D03*
%TO.P,U1,24,VDD*%
%TO.N,+3.3V*%
X74378000Y-98396500D03*
D30*
%TO.P,U1,25,PB12*%
%TO.N,unconnected-(U1-PB12-Pad25)*%
X75790500Y-96984000D03*
%TO.P,U1,26,PB13*%
%TO.N,unconnected-(U1-PB13-Pad26)*%
X75790500Y-96484000D03*
%TO.P,U1,27,PB14*%
%TO.N,unconnected-(U1-PB14-Pad27)*%
X75790500Y-95984000D03*
%TO.P,U1,28,PB15*%
%TO.N,unconnected-(U1-PB15-Pad28)*%
X75790500Y-95484000D03*
%TO.P,U1,29,PA8*%
%TO.N,unconnected-(U1-PA8-Pad29)*%
X75790500Y-94984000D03*
%TO.P,U1,30,PA9*%
%TO.N,unconnected-(U1-PA9-Pad30)*%
X75790500Y-94484000D03*
%TO.P,U1,31,PA10*%
%TO.N,unconnected-(U1-PA10-Pad31)*%
X75790500Y-93984000D03*
%TO.P,U1,32,PA11*%
%TO.N,/USB_D-*%
X75790500Y-93484000D03*
%TO.P,U1,33,PA12*%
%TO.N,/USB_D+*%
X75790500Y-92984000D03*
%TO.P,U1,34,PA13*%
%TO.N,/SW_DIO*%
X75790500Y-92484000D03*
%TO.P,U1,35,VSS*%
%TO.N,GND*%
X75790500Y-91984000D03*
%TO.P,U1,36,VDD*%
%TO.N,+3.3V*%
X75790500Y-91484000D03*
D31*
%TO.P,U1,37,PA14*%
%TO.N,/SWCLK*%
X74378000Y-90071500D03*
%TO.P,U1,38,PA15*%
%TO.N,unconnected-(U1-PA15-Pad38)*%
X73878000Y-90071500D03*
%TO.P,U1,39,PB3*%
%TO.N,unconnected-(U1-PB3-Pad39)*%
X73378000Y-90071500D03*
%TO.P,U1,40,PB4*%
%TO.N,unconnected-(U1-PB4-Pad40)*%
X72878000Y-90071500D03*
%TO.P,U1,41,PB5*%
%TO.N,unconnected-(U1-PB5-Pad41)*%
X72378000Y-90071500D03*
%TO.P,U1,42,PB6*%
%TO.N,/USART1_TX*%
X71878000Y-90071500D03*
%TO.P,U1,43,PB7*%
%TO.N,/USART1_RX*%
X71378000Y-90071500D03*
%TO.P,U1,44,BOOT0*%
%TO.N,/Boot0*%
X70878000Y-90071500D03*
%TO.P,U1,45,PB8*%
%TO.N,unconnected-(U1-PB8-Pad45)*%
X70378000Y-90071500D03*
%TO.P,U1,46,PB9*%
%TO.N,unconnected-(U1-PB9-Pad46)*%
X69878000Y-90071500D03*
%TO.P,U1,47,VSS*%
%TO.N,GND*%
X69378000Y-90071500D03*
%TO.P,U1,48,VDD*%
%TO.N,+3.3V*%
X68878000Y-90071500D03*
%TD*%
D32*
%TO.P,R1,1*%
%TO.N,/SW_BOOT0*%
X59690000Y-88140000D03*
%TO.P,R1,2*%
%TO.N,/Boot0*%
X59690000Y-87120000D03*
%TD*%
D15*
%TO.P,C4,1*%
%TO.N,+3.3V*%
X65278000Y-91412000D03*
%TO.P,C4,2*%
%TO.N,GND*%
X65278000Y-90452000D03*
%TD*%
%TO.P,C10,1*%
%TO.N,/HSE_IN*%
X63920000Y-93162000D03*
%TO.P,C10,2*%
%TO.N,GND*%
X63920000Y-92202000D03*
%TD*%
D33*
%TO.P,C5,1*%
%TO.N,+3.3V*%
X68326000Y-86614000D03*
%TO.P,C5,2*%
%TO.N,GND*%
X69876000Y-86614000D03*
%TD*%
D34*
%TO.N,GND*%
X77343000Y-83820000D03*
D35*
%TO.N,+3.3V*%
X66548000Y-104140000D03*
X72573122Y-102164122D03*
X58928000Y-89789000D03*
X70694878Y-102063878D03*
X68326000Y-104140000D03*
X60452000Y-89789000D03*
%TO.N,GND*%
X65278000Y-88392000D03*
X65786000Y-83820000D03*
X69342000Y-91694000D03*
X58166000Y-94234000D03*
X74422000Y-103378000D03*
X68834000Y-94996000D03*
X78867000Y-92359500D03*
X60706000Y-95758000D03*
X84836000Y-100838000D03*
X88392000Y-100838000D03*
X64889405Y-93924506D03*
X62484000Y-90170000D03*
X93218000Y-99034500D03*
X83820000Y-100838000D03*
X64008000Y-101600000D03*
X86487000Y-91694000D03*
X64008000Y-91186000D03*
X84074000Y-97536000D03*
X71084938Y-100040938D03*
X64008000Y-97790000D03*
X73914000Y-96774000D03*
X84074000Y-96266000D03*
%TD*%
D36*
%TO.N,unconnected-(J1-Shield-Pad6)*%
X92732000Y-96689000D02*
X92882000Y-96839000D01*
X89082000Y-96689000D02*
X92732000Y-96689000D01*
X90932000Y-89789000D02*
X90932000Y-96012000D01*
X90382000Y-89239000D02*
X90932000Y-89789000D01*
X90255000Y-96689000D02*
X89082000Y-96689000D01*
X89082000Y-89239000D02*
X90382000Y-89239000D01*
X90932000Y-96012000D02*
X90255000Y-96689000D01*
X92732000Y-89239000D02*
X92882000Y-89089000D01*
X89082000Y-89239000D02*
X92732000Y-89239000D01*
D37*
%TO.N,GND*%
X77978000Y-83185000D02*
X77343000Y-83820000D01*
X77978000Y-81534000D02*
X77978000Y-83185000D01*
%TO.N,+3.3V*%
X86233000Y-80899000D02*
X85598000Y-81534000D01*
X66421000Y-102108000D02*
X66548000Y-102108000D01*
X94488000Y-86995000D02*
X94488000Y-87503000D01*
X70694878Y-102063878D02*
X70344123Y-102063878D01*
X89408000Y-102804000D02*
X90515500Y-102804000D01*
X68636000Y-87686000D02*
X68636000Y-88138000D01*
D36*
X77934000Y-91484000D02*
X77978000Y-91440000D01*
D37*
X75664000Y-106271000D02*
X75664000Y-102108000D01*
X73406000Y-81534000D02*
X75819000Y-79121000D01*
X86868000Y-102804000D02*
X89408000Y-102804000D01*
X70344123Y-102063878D02*
X69604000Y-102804001D01*
D36*
X67393500Y-91412000D02*
X67465500Y-91484000D01*
D37*
X82103000Y-102804000D02*
X82042000Y-102743000D01*
X88646000Y-106045000D02*
X88646000Y-108204000D01*
X82042000Y-102743000D02*
X82042000Y-105512000D01*
X75664000Y-101473000D02*
X75664000Y-100076000D01*
X75664000Y-102108000D02*
X72629244Y-102108000D01*
X55282000Y-88228000D02*
X55075000Y-88435000D01*
X86995000Y-84836000D02*
X92583000Y-84836000D01*
X68326000Y-86614000D02*
X68326000Y-87376000D01*
X88646000Y-108204000D02*
X88138000Y-108712000D01*
D36*
X67465500Y-91484000D02*
X67465500Y-86642500D01*
D37*
X94361000Y-101600000D02*
X92329000Y-103632000D01*
X88138000Y-108712000D02*
X78105000Y-108712000D01*
X68338000Y-104128000D02*
X68326000Y-104140000D01*
X94488000Y-101600000D02*
X94361000Y-101600000D01*
D36*
X75790500Y-91484000D02*
X77934000Y-91484000D01*
D37*
X79504000Y-91440000D02*
X77978000Y-91440000D01*
X69604000Y-103124000D02*
X68338000Y-103124000D01*
X86360000Y-86995000D02*
X81409000Y-91946000D01*
X72629244Y-102108000D02*
X72573122Y-102164122D01*
D36*
X75664000Y-99682500D02*
X75664000Y-100076000D01*
D37*
X86868000Y-102804000D02*
X82103000Y-102804000D01*
X75664000Y-102108000D02*
X75664000Y-101473000D01*
X65786000Y-102743000D02*
X66421000Y-102108000D01*
X57785000Y-88428000D02*
X57785000Y-88646000D01*
X59055000Y-104140000D02*
X65786000Y-104140000D01*
X85598000Y-79121000D02*
X86233000Y-79756000D01*
D36*
X65278000Y-91412000D02*
X67393500Y-91412000D01*
X68878000Y-90071500D02*
X68878000Y-89198000D01*
X68878000Y-89198000D02*
X68636000Y-88956000D01*
D37*
X94488000Y-87503000D02*
X94488000Y-101600000D01*
D36*
X74378000Y-98396500D02*
X75664000Y-99682500D01*
D37*
X69604000Y-102804001D02*
X69604000Y-103124000D01*
X81409000Y-91946000D02*
X80010000Y-91946000D01*
D36*
X68636000Y-88956000D02*
X68636000Y-88138000D01*
D37*
X66548000Y-100330000D02*
X64968000Y-100330000D01*
X66548000Y-104140000D02*
X65786000Y-104140000D01*
X86233000Y-79756000D02*
X86233000Y-80899000D01*
D36*
X67437000Y-86614000D02*
X68326000Y-86614000D01*
D37*
X55075000Y-92678000D02*
X56261000Y-93864000D01*
X66548000Y-102108000D02*
X66548000Y-100330000D01*
X55075000Y-88435000D02*
X55075000Y-92678000D01*
X68326000Y-87376000D02*
X68636000Y-87686000D01*
X90515500Y-102804000D02*
X91186000Y-102133500D01*
X65786000Y-105918000D02*
X65786000Y-104140000D01*
X92583000Y-84836000D02*
X94488000Y-86741000D01*
X92329000Y-103632000D02*
X89408000Y-103632000D01*
X82042000Y-99212000D02*
X82042000Y-102743000D01*
X89408000Y-102804000D02*
X89408000Y-103632000D01*
X57785000Y-88646000D02*
X58928000Y-89789000D01*
X65786000Y-104140000D02*
X65786000Y-102743000D01*
X75819000Y-79121000D02*
X85598000Y-79121000D01*
X85598000Y-81534000D02*
X85598000Y-83439000D01*
X57585000Y-88228000D02*
X55282000Y-88228000D01*
X57785000Y-88428000D02*
X57585000Y-88228000D01*
X89408000Y-105283000D02*
X88646000Y-106045000D01*
D36*
X60452000Y-89789000D02*
X63627000Y-86614000D01*
X63627000Y-86614000D02*
X67437000Y-86614000D01*
D37*
X68338000Y-103124000D02*
X68338000Y-104128000D01*
X56261000Y-93864000D02*
X56261000Y-101346000D01*
X89408000Y-103632000D02*
X89408000Y-105283000D01*
X56261000Y-101346000D02*
X59055000Y-104140000D01*
X85598000Y-83439000D02*
X86995000Y-84836000D01*
X86360000Y-86995000D02*
X94488000Y-86995000D01*
X94488000Y-86741000D02*
X94488000Y-86995000D01*
X80010000Y-91946000D02*
X79504000Y-91440000D01*
D36*
X67465500Y-86642500D02*
X67437000Y-86614000D01*
D37*
X78105000Y-108712000D02*
X75664000Y-106271000D01*
%TO.N,GND*%
X91950000Y-99034500D02*
X93218000Y-99034500D01*
X69596000Y-87630000D02*
X69596000Y-88138000D01*
D36*
X68822000Y-94984000D02*
X68834000Y-94996000D01*
X73878000Y-98396500D02*
X73878000Y-99250000D01*
X76631120Y-91984000D02*
X77047120Y-92400000D01*
X75790500Y-91984000D02*
X76631120Y-91984000D01*
X86517000Y-91664000D02*
X86487000Y-91694000D01*
D37*
X60745000Y-93937000D02*
X60745000Y-95719000D01*
D36*
X73878000Y-96810000D02*
X73914000Y-96774000D01*
D37*
X64551911Y-94262000D02*
X64889405Y-93924506D01*
D36*
X78826500Y-92400000D02*
X78867000Y-92359500D01*
D37*
X73406000Y-105918000D02*
X73406000Y-104394000D01*
X69876000Y-87350000D02*
X69596000Y-87630000D01*
X57785000Y-92928000D02*
X58166000Y-93309000D01*
D36*
X73878000Y-98396500D02*
X73878000Y-96810000D01*
D37*
X70076000Y-100076000D02*
X71049876Y-100076000D01*
X63920000Y-92202000D02*
X63920000Y-91274000D01*
X64036000Y-98806000D02*
X64036000Y-97818000D01*
D36*
X69378000Y-90071500D02*
X69378000Y-89118000D01*
D37*
X62445000Y-90209000D02*
X62484000Y-90170000D01*
X65278000Y-90452000D02*
X65278000Y-88392000D01*
X62445000Y-91737000D02*
X62445000Y-90209000D01*
X58166000Y-93309000D02*
X58166000Y-94234000D01*
D36*
X67465500Y-94984000D02*
X68822000Y-94984000D01*
X77978000Y-92400000D02*
X78826500Y-92400000D01*
X69596000Y-88900000D02*
X69596000Y-88138000D01*
D37*
X63920000Y-94262000D02*
X64551911Y-94262000D01*
D36*
X69378000Y-90071500D02*
X69378000Y-91658000D01*
X67465500Y-94984000D02*
X65826000Y-94984000D01*
X73878000Y-99250000D02*
X74704000Y-100076000D01*
X89032000Y-91664000D02*
X86517000Y-91664000D01*
D37*
X65786000Y-81534000D02*
X65786000Y-83820000D01*
D36*
X65826000Y-94984000D02*
X65786000Y-95024000D01*
X77047120Y-92400000D02*
X77978000Y-92400000D01*
D37*
X60745000Y-95719000D02*
X60706000Y-95758000D01*
D36*
X69378000Y-91658000D02*
X69342000Y-91694000D01*
D37*
X63920000Y-91274000D02*
X64008000Y-91186000D01*
X64008000Y-100330000D02*
X64008000Y-101600000D01*
X64036000Y-97818000D02*
X64008000Y-97790000D01*
D36*
X69378000Y-89118000D02*
X69596000Y-88900000D01*
D37*
X69876000Y-86614000D02*
X69876000Y-87350000D01*
X71049876Y-100076000D02*
X71084938Y-100040938D01*
X73406000Y-104394000D02*
X74422000Y-103378000D01*
%TO.N,+3.3VA*%
X65047000Y-98755000D02*
X64996000Y-98806000D01*
X65786000Y-98755000D02*
X65047000Y-98755000D01*
X66548000Y-98755000D02*
X65786000Y-98755000D01*
D36*
X66568000Y-95484000D02*
X66068000Y-95984000D01*
X67465500Y-95484000D02*
X66568000Y-95484000D01*
X65786000Y-95984000D02*
X65786000Y-98755000D01*
X66068000Y-95984000D02*
X65786000Y-95984000D01*
%TO.N,Net-(U1-NRST)*%
X69534000Y-96399880D02*
X67818000Y-98115880D01*
X67465500Y-94484000D02*
X68356050Y-94484000D01*
X68544050Y-94296000D02*
X69123950Y-94296000D01*
X67818000Y-100076000D02*
X69116000Y-100076000D01*
X67818000Y-98115880D02*
X67818000Y-100076000D01*
X69123950Y-94296000D02*
X69534000Y-94706050D01*
X68356050Y-94484000D02*
X68544050Y-94296000D01*
X69534000Y-94706050D02*
X69534000Y-96399880D01*
%TO.N,/HSE_IN*%
X64245000Y-92837000D02*
X65913000Y-92837000D01*
X63920000Y-93162000D02*
X63595000Y-92837000D01*
X63920000Y-93162000D02*
X64245000Y-92837000D01*
X60745000Y-92241000D02*
X60745000Y-91737000D01*
X66560000Y-93484000D02*
X67465500Y-93484000D01*
X63595000Y-92837000D02*
X61341000Y-92837000D01*
X61341000Y-92837000D02*
X60745000Y-92241000D01*
X65913000Y-92837000D02*
X66560000Y-93484000D01*
%TO.N,/HSE_OUT*%
X64581861Y-95222000D02*
X63920000Y-95222000D01*
X62445000Y-93937000D02*
X62445000Y-94830000D01*
X62837000Y-95222000D02*
X63920000Y-95222000D01*
X65819861Y-93984000D02*
X64581861Y-95222000D01*
X67465500Y-93984000D02*
X65819861Y-93984000D01*
X62445000Y-94830000D02*
X62837000Y-95222000D01*
%TO.N,VBUS*%
X80838000Y-95438000D02*
X82012000Y-94264000D01*
X79742000Y-97870000D02*
X80838000Y-96774000D01*
X82012000Y-94264000D02*
X89032000Y-94264000D01*
X80838000Y-96774000D02*
X80838000Y-95438000D01*
X79742000Y-99212000D02*
X79742000Y-97870000D01*
D38*
%TO.N,/USB_D-*%
X89032000Y-93614000D02*
X88607000Y-93614000D01*
D36*
X79518366Y-93484000D02*
X79648366Y-93614000D01*
X75790500Y-93484000D02*
X79518366Y-93484000D01*
D38*
X88607000Y-93614000D02*
X88507000Y-93514000D01*
D36*
X79648366Y-93614000D02*
X89032000Y-93614000D01*
D38*
%TO.N,/USB_D+*%
X88270227Y-93064000D02*
X88215227Y-93009000D01*
X76921751Y-93009000D02*
X76896751Y-92984000D01*
X76896751Y-92984000D02*
X75790500Y-92984000D01*
X89032000Y-92964000D02*
X88607000Y-92964000D01*
X88215227Y-93009000D02*
X76921751Y-93009000D01*
X88607000Y-92964000D02*
X88507000Y-93064000D01*
X88507000Y-93064000D02*
X88270227Y-93064000D01*
D36*
%TO.N,/SW_DIO*%
X83058000Y-82804000D02*
X83058000Y-81534000D01*
X73914000Y-91948000D02*
X83058000Y-82804000D01*
X75790500Y-92484000D02*
X74196000Y-92484000D01*
X74196000Y-92484000D02*
X73914000Y-92202000D01*
X73914000Y-92202000D02*
X73914000Y-91948000D01*
%TO.N,/SWCLK*%
X78994000Y-83820000D02*
X80264000Y-83820000D01*
X74378000Y-88436000D02*
X78994000Y-83820000D01*
X80518000Y-83566000D02*
X80518000Y-81534000D01*
X74378000Y-90071500D02*
X74378000Y-88436000D01*
X80264000Y-83820000D02*
X80518000Y-83566000D01*
%TO.N,/USART1_TX*%
X72136000Y-88646000D02*
X72136000Y-84582000D01*
X71878000Y-90071500D02*
X71878000Y-88904000D01*
X72136000Y-84582000D02*
X70866000Y-83312000D01*
X70866000Y-83312000D02*
X70866000Y-81534000D01*
X71878000Y-88904000D02*
X72136000Y-88646000D01*
%TO.N,/USART1_RX*%
X68580000Y-83566000D02*
X68326000Y-83312000D01*
X71378000Y-90071500D02*
X71378000Y-85094000D01*
X69850000Y-83566000D02*
X68580000Y-83566000D01*
X68326000Y-83312000D02*
X68326000Y-81534000D01*
X71378000Y-85094000D02*
X69850000Y-83566000D01*
%TO.N,/I2C2_SCL*%
X67318000Y-103124000D02*
X67318000Y-102989000D01*
X72878000Y-99334000D02*
X72878000Y-98396500D01*
X67318000Y-103124000D02*
X67318000Y-104910000D01*
X67318000Y-101997000D02*
X68338000Y-100977000D01*
X71247000Y-100965000D02*
X72878000Y-99334000D01*
X68326000Y-100965000D02*
X71247000Y-100965000D01*
X67318000Y-103124000D02*
X67318000Y-101997000D01*
X68338000Y-100977000D02*
X68326000Y-100965000D01*
X67318000Y-104910000D02*
X68326000Y-105918000D01*
X68338000Y-105906000D02*
X68326000Y-105918000D01*
X67437000Y-102870000D02*
X67318000Y-102989000D01*
%TO.N,/I2C2_SDA*%
X70624000Y-103124000D02*
X70624000Y-105676000D01*
X70624000Y-105676000D02*
X70866000Y-105918000D01*
X73378000Y-100370000D02*
X70624000Y-103124000D01*
X73378000Y-98396500D02*
X73378000Y-100370000D01*
%TO.N,/Boot0*%
X61214000Y-84582000D02*
X60960000Y-84836000D01*
X60960000Y-87122000D02*
X60958000Y-87120000D01*
X60960000Y-84836000D02*
X60960000Y-87122000D01*
X70878000Y-90071500D02*
X70878000Y-85610000D01*
X60958000Y-87120000D02*
X59690000Y-87120000D01*
X70612000Y-85344000D02*
X70612000Y-85289106D01*
X69904894Y-84582000D02*
X61214000Y-84582000D01*
X70878000Y-85610000D02*
X70612000Y-85344000D01*
X70612000Y-85289106D02*
X69904894Y-84582000D01*
D37*
%TO.N,/PWR_LED_K*%
X91186000Y-99290500D02*
X90930000Y-99034500D01*
X91186000Y-100558500D02*
X91186000Y-99290500D01*
D36*
%TO.N,/SW_BOOT0*%
X59690000Y-88140000D02*
X59690000Y-90932000D01*
X59194000Y-91428000D02*
X57785000Y-91428000D01*
X59690000Y-90932000D02*
X59194000Y-91428000D01*
%TD*%
%TA.AperFunction,Conductor*%
%TO.N,GND*%
G36*
X84851677Y-95777685D02*
G01*
X84872319Y-95794319D01*
X85561681Y-96483681D01*
X85595166Y-96545004D01*
X85598000Y-96571362D01*
X85598000Y-99314001D01*
X86105998Y-100329998D01*
X86105999Y-100329999D01*
X86106000Y-100330000D01*
X88848638Y-100330000D01*
X88915677Y-100349685D01*
X88936319Y-100366319D01*
X89117681Y-100547681D01*
X89151166Y-100609004D01*
X89154000Y-100635362D01*
X89154000Y-101294638D01*
X89134315Y-101361677D01*
X89117681Y-101382319D01*
X88936319Y-101563681D01*
X88874996Y-101597166D01*
X88848638Y-101600000D01*
X83617362Y-101600000D01*
X83550323Y-101580315D01*
X83529681Y-101563681D01*
X83348319Y-101382319D01*
X83314834Y-101320996D01*
X83312000Y-101294638D01*
X83312000Y-98298000D01*
X83058000Y-97536000D01*
X82093362Y-97536000D01*
X82026323Y-97516315D01*
X82005681Y-97499681D01*
X81824319Y-97318319D01*
X81790834Y-97256996D01*
X81788000Y-97230638D01*
X81788000Y-96063362D01*
X81807685Y-95996323D01*
X81824319Y-95975681D01*
X82005681Y-95794319D01*
X82067004Y-95760834D01*
X82093362Y-95758000D01*
X84784638Y-95758000D01*
X84851677Y-95777685D01*
G37*
%TD.AperFunction*%
%TD*%
M02*
