M48
; DRILL file {KiCad 7.0.9} date Tue Jan  2 09:41:12 2024
; FORMAT={-:-/ absolute / inch / decimal}
; #@! TF.CreationDate,2024-01-02T09:41:12+05:30
; #@! TF.GenerationSoftware,Kicad,Pcbnew,7.0.9
; #@! TF.FileFunction,Plated,1,2,PTH
FMAT,2
INCH
; #@! TA.AperFunction,Plated,PTH,ViaDrill
T1C0.0118
; #@! TA.AperFunction,Plated,PTH,ViaDrill
T2C0.0157
; #@! TA.AperFunction,Plated,PTH,ComponentDrill
T3C0.0217
; #@! TA.AperFunction,Plated,PTH,ComponentDrill
T4C0.0335
; #@! TA.AperFunction,Plated,PTH,ComponentDrill
T5C0.0394
%
G90
G05
T1
X2.29Y-3.71
X2.32Y-3.535
X2.38Y-3.535
X2.39Y-3.77
X2.46Y-3.55
X2.52Y-3.59
X2.52Y-3.85
X2.52Y-4.0
X2.5547Y-3.6978
X2.57Y-3.48
X2.59Y-3.3
X2.62Y-4.1
X2.69Y-4.1
X2.71Y-3.74
X2.73Y-3.61
X2.7833Y-4.0183
X2.7986Y-3.9386
X2.8572Y-4.0222
X2.91Y-3.81
X2.93Y-4.07
X3.105Y-3.6362
X3.3Y-3.97
X3.31Y-3.79
X3.31Y-3.84
X3.34Y-3.97
X3.405Y-3.61
X3.48Y-3.97
X3.67Y-3.899
T2
X3.045Y-3.3
T5
X2.59Y-3.21
X2.59Y-4.17
X2.69Y-3.21
X2.69Y-4.17
X2.79Y-3.21
X2.79Y-4.17
X2.89Y-3.21
X2.89Y-4.17
X3.07Y-3.21
X3.17Y-3.21
X3.27Y-3.21
X3.37Y-3.21
T3
G00X3.644Y-3.5074
M15
G01X3.6696Y-3.5074
M16
G05
G00X3.644Y-3.8126
M15
G01X3.6696Y-3.8126
M16
G05
T4
G00X3.4963Y-3.5133
M15
G01X3.518Y-3.5133
M16
G05
G00X3.4963Y-3.8067
M15
G01X3.518Y-3.8067
M16
G05
T0
M30
