%TF.GenerationSoftware,KiCad,Pcbnew,7.0.9*%
%TF.CreationDate,2024-01-02T09:41:28+05:30*%
%TF.ProjectId,STM32F103C8T6,53544d33-3246-4313-9033-433854362e6b,rev?*%
%TF.SameCoordinates,Original*%
%TF.FileFunction,Paste,Top*%
%TF.FilePolarity,Positive*%
%FSLAX46Y46*%
G04 Gerber Fmt 4.6, Leading zero omitted, Abs format (unit mm)*
G04 Created by KiCad (PCBNEW 7.0.9) date 2024-01-02 09:41:28*
%MOMM*%
%LPD*%
G01*
G04 APERTURE LIST*
G04 Aperture macros list*
%AMRoundRect*
0 Rectangle with rounded corners*
0 $1 Rounding radius*
0 $2 $3 $4 $5 $6 $7 $8 $9 X,Y pos of 4 corners*
0 Add a 4 corners polygon primitive as box body*
4,1,4,$2,$3,$4,$5,$6,$7,$8,$9,$2,$3,0*
0 Add four circle primitives for the rounded corners*
1,1,$1+$1,$2,$3*
1,1,$1+$1,$4,$5*
1,1,$1+$1,$6,$7*
1,1,$1+$1,$8,$9*
0 Add four rect primitives between the rounded corners*
20,1,$1+$1,$2,$3,$4,$5,0*
20,1,$1+$1,$4,$5,$6,$7,0*
20,1,$1+$1,$6,$7,$8,$9,0*
20,1,$1+$1,$8,$9,$2,$3,0*%
G04 Aperture macros list end*
%ADD10RoundRect,0.135000X0.135000X0.185000X-0.135000X0.185000X-0.135000X-0.185000X0.135000X-0.185000X0*%
%ADD11RoundRect,0.250000X0.475000X-0.250000X0.475000X0.250000X-0.475000X0.250000X-0.475000X-0.250000X0*%
%ADD12RoundRect,0.140000X0.140000X0.170000X-0.140000X0.170000X-0.140000X-0.170000X0.140000X-0.170000X0*%
%ADD13RoundRect,0.140000X-0.140000X-0.170000X0.140000X-0.170000X0.140000X0.170000X-0.140000X0.170000X0*%
%ADD14RoundRect,0.135000X-0.135000X-0.185000X0.135000X-0.185000X0.135000X0.185000X-0.135000X0.185000X0*%
%ADD15RoundRect,0.140000X0.170000X-0.140000X0.170000X0.140000X-0.170000X0.140000X-0.170000X-0.140000X0*%
%ADD16RoundRect,0.218750X-0.256250X0.218750X-0.256250X-0.218750X0.256250X-0.218750X0.256250X0.218750X0*%
%ADD17RoundRect,0.250000X-0.250000X-0.475000X0.250000X-0.475000X0.250000X0.475000X-0.250000X0.475000X0*%
%ADD18RoundRect,0.135000X-0.185000X0.135000X-0.185000X-0.135000X0.185000X-0.135000X0.185000X0.135000X0*%
%ADD19R,1.500000X2.000000*%
%ADD20R,3.800000X2.000000*%
%ADD21R,1.300000X0.450000*%
%ADD22R,0.800000X1.000000*%
%ADD23R,1.500000X0.700000*%
%ADD24R,1.200000X1.400000*%
%ADD25RoundRect,0.140000X-0.170000X0.140000X-0.170000X-0.140000X0.170000X-0.140000X0.170000X0.140000X0*%
%ADD26RoundRect,0.075000X-0.662500X-0.075000X0.662500X-0.075000X0.662500X0.075000X-0.662500X0.075000X0*%
%ADD27RoundRect,0.075000X-0.075000X-0.662500X0.075000X-0.662500X0.075000X0.662500X-0.075000X0.662500X0*%
%ADD28RoundRect,0.135000X0.185000X-0.135000X0.185000X0.135000X-0.185000X0.135000X-0.185000X-0.135000X0*%
%ADD29RoundRect,0.225000X-0.225000X-0.250000X0.225000X-0.250000X0.225000X0.250000X-0.225000X0.250000X0*%
G04 APERTURE END LIST*
D10*
%TO.C,R4*%
X68338000Y-103124000D03*
X67318000Y-103124000D03*
%TD*%
D11*
%TO.C,C13*%
X86868000Y-102804000D03*
X86868000Y-100904000D03*
%TD*%
D12*
%TO.C,C8*%
X64968000Y-100330000D03*
X64008000Y-100330000D03*
%TD*%
D13*
%TO.C,C9*%
X69116000Y-100076000D03*
X70076000Y-100076000D03*
%TD*%
D14*
%TO.C,R3*%
X90930000Y-99034500D03*
X91950000Y-99034500D03*
%TD*%
D15*
%TO.C,C11*%
X63920000Y-95222000D03*
X63920000Y-94262000D03*
%TD*%
D12*
%TO.C,C7*%
X64996000Y-98806000D03*
X64036000Y-98806000D03*
%TD*%
D16*
%TO.C,FB1*%
X66548000Y-98755000D03*
X66548000Y-100330000D03*
%TD*%
D17*
%TO.C,C12*%
X80838000Y-96774000D03*
X82738000Y-96774000D03*
%TD*%
D18*
%TO.C,R2*%
X80010000Y-91946000D03*
X80010000Y-92966000D03*
%TD*%
D12*
%TO.C,C3*%
X75664000Y-100076000D03*
X74704000Y-100076000D03*
%TD*%
D14*
%TO.C,R5*%
X69604000Y-103124000D03*
X70624000Y-103124000D03*
%TD*%
D16*
%TO.C,D1*%
X91186000Y-100558500D03*
X91186000Y-102133500D03*
%TD*%
D19*
%TO.C,U2*%
X84342000Y-99212000D03*
X82042000Y-99212000D03*
D20*
X82042000Y-105512000D03*
D19*
X79742000Y-99212000D03*
%TD*%
D21*
%TO.C,J1*%
X89032000Y-94264000D03*
X89032000Y-93614000D03*
X89032000Y-92964000D03*
X89032000Y-92314000D03*
X89032000Y-91664000D03*
%TD*%
D22*
%TO.C,SW1*%
X57135000Y-87028000D03*
X54925000Y-87028000D03*
X57135000Y-94328000D03*
X54925000Y-94328000D03*
D23*
X57785000Y-88428000D03*
X57785000Y-91428000D03*
X57785000Y-92928000D03*
%TD*%
D24*
%TO.C,Y1*%
X60745000Y-91737000D03*
X60745000Y-93937000D03*
X62445000Y-93937000D03*
X62445000Y-91737000D03*
%TD*%
D13*
%TO.C,C1*%
X68636000Y-88138000D03*
X69596000Y-88138000D03*
%TD*%
D15*
%TO.C,C6*%
X65786000Y-95984000D03*
X65786000Y-95024000D03*
%TD*%
D25*
%TO.C,C2*%
X77978000Y-91440000D03*
X77978000Y-92400000D03*
%TD*%
D26*
%TO.C,U1*%
X67465500Y-91484000D03*
X67465500Y-91984000D03*
X67465500Y-92484000D03*
X67465500Y-92984000D03*
X67465500Y-93484000D03*
X67465500Y-93984000D03*
X67465500Y-94484000D03*
X67465500Y-94984000D03*
X67465500Y-95484000D03*
X67465500Y-95984000D03*
X67465500Y-96484000D03*
X67465500Y-96984000D03*
D27*
X68878000Y-98396500D03*
X69378000Y-98396500D03*
X69878000Y-98396500D03*
X70378000Y-98396500D03*
X70878000Y-98396500D03*
X71378000Y-98396500D03*
X71878000Y-98396500D03*
X72378000Y-98396500D03*
X72878000Y-98396500D03*
X73378000Y-98396500D03*
X73878000Y-98396500D03*
X74378000Y-98396500D03*
D26*
X75790500Y-96984000D03*
X75790500Y-96484000D03*
X75790500Y-95984000D03*
X75790500Y-95484000D03*
X75790500Y-94984000D03*
X75790500Y-94484000D03*
X75790500Y-93984000D03*
X75790500Y-93484000D03*
X75790500Y-92984000D03*
X75790500Y-92484000D03*
X75790500Y-91984000D03*
X75790500Y-91484000D03*
D27*
X74378000Y-90071500D03*
X73878000Y-90071500D03*
X73378000Y-90071500D03*
X72878000Y-90071500D03*
X72378000Y-90071500D03*
X71878000Y-90071500D03*
X71378000Y-90071500D03*
X70878000Y-90071500D03*
X70378000Y-90071500D03*
X69878000Y-90071500D03*
X69378000Y-90071500D03*
X68878000Y-90071500D03*
%TD*%
D28*
%TO.C,R1*%
X59690000Y-88140000D03*
X59690000Y-87120000D03*
%TD*%
D15*
%TO.C,C4*%
X65278000Y-91412000D03*
X65278000Y-90452000D03*
%TD*%
%TO.C,C10*%
X63920000Y-93162000D03*
X63920000Y-92202000D03*
%TD*%
D29*
%TO.C,C5*%
X68326000Y-86614000D03*
X69876000Y-86614000D03*
%TD*%
M02*
